<?xml version="1.0" encoding="utf-8"?>
<!-- Generator: Adobe Illustrator 24.0.1, SVG Export Plug-In . SVG Version: 6.00 Build 0)  -->
<svg version="1.1" id="Capa_1" xmlns="http://www.w3.org/2000/svg" xmlns:xlink="http://www.w3.org/1999/xlink" x="0px" y="0px"
	 viewBox="0 0 140 39" style="enable-background:new 0 0 140 39;" xml:space="preserve">
<style type="text/css">
	.st0{fill:#FFFFFF;}
	.st1{fill:#FA6400;}
</style>
<g>
	<rect x="-0.1" class="st0" width="128.9" height="35.9"/>
	<path class="st1" d="M17.9,2h-16v31.9h16c8.8,0,16-7.1,16-15.9S26.8,2,17.9,2z M23.2,12.9C23.2,12.9,23.2,12.9,23.2,12.9
		c-0.1-0.1-0.4-0.2-1-0.4c-0.7-0.2-1.9-0.5-3.8-0.5c0.1,2,0.5,3.1,0.7,3.7l0,0.1c0.1,0.3,0.4,0.9,1,1.1c0,0,0.1,0,0.1,0.1
		c0,0,0,0,0,0.1l-2.2,15c0,0.1-0.1,0.1-0.1,0.1c-0.1,0-0.1,0-0.1-0.1l-2.2-15c0,0,0,0,0-0.1c0,0,0-0.1,0.1-0.1
		c0.5-0.2,0.8-0.8,1-1.1c0.2-0.5,0.6-1.7,0.7-3.7c-1.9,0-3.1,0.3-3.8,0.5c-0.6,0.2-0.9,0.4-0.9,0.4c0,0,0,0,0,0c0,0,0,0,0,0
		c-0.8,0-1.5-0.7-1.5-1.5s0.7-1.5,1.5-1.5c0,0,0,0,0,0c0,0,0,0,0,0c0,0,0.3,0.2,0.9,0.4c0.7,0.2,1.9,0.5,3.8,0.5
		c0-1.9-0.3-3.1-0.5-3.8c-0.2-0.6-0.3-0.8-0.4-0.9c0,0,0-0.1,0-0.1c0-0.4,0.2-0.7,0.4-1c0.3-0.3,0.7-0.4,1-0.4c0.2,0,0.4,0,0.7,0.1
		C19,4.9,19.3,5.5,19.3,6c0,0,0,0.1,0,0.1c0,0-0.2,0.3-0.4,0.9c-0.2,0.7-0.5,1.9-0.5,3.8c1.9,0,3.1-0.3,3.8-0.5
		c0.6-0.2,0.9-0.3,0.9-0.4c0,0,0,0,0.1,0c0.8,0,1.5,0.7,1.5,1.5C24.7,12.2,24.1,12.9,23.2,12.9z"/>
	<path class="st1" d="M126.7,2H28.6c4.5,3.3,7.5,8.6,7.6,14.7c0.1,7.8-4.7,14.5-11.5,17.3h102V2z"/>
	<g>
		<g>
			<path class="st0" d="M58.4,26.4c-0.6,0.2-1.3,0.5-2,0.7c-0.6,0.2-1.3,0.3-2.1,0.5c-0.8,0.1-1.6,0.2-2.3,0.2
				c-1.3,0-2.5-0.2-3.6-0.7s-2.1-1.1-2.9-2S44,23.2,43.5,22c-0.5-1.2-0.7-2.6-0.7-4.1c0-1.5,0.3-2.9,0.8-4.1
				c0.5-1.2,1.2-2.3,2.1-3.1c0.9-0.9,1.9-1.5,3.1-2C50.1,8.2,51.4,8,52.7,8c0.8,0,1.5,0,2.1,0.1c0.6,0.1,1.2,0.2,1.6,0.3
				c0.5,0.1,1,0.2,1.4,0.4l-0.9,2.6c-0.3-0.1-0.7-0.1-1-0.2c-0.3-0.1-0.7-0.1-1.1-0.2S53.9,11,53.4,11c-1,0-1.9,0.2-2.7,0.5
				s-1.6,0.8-2.2,1.4c-0.6,0.6-1.1,1.3-1.4,2.2c-0.3,0.9-0.5,1.8-0.5,2.9c0,1,0.2,1.9,0.5,2.7c0.3,0.8,0.7,1.5,1.3,2.1
				c0.5,0.6,1.2,1.1,1.9,1.4c0.7,0.3,1.6,0.5,2.4,0.5c0.4,0,0.7,0,1,0s0.5,0,0.7-0.1c0.2,0,0.5-0.1,0.7-0.1V20h-3.4v-2.9h6.8
				L58.4,26.4L58.4,26.4z"/>
			<path class="st0" d="M69,27.5l-0.3-1.6h-0.1c-0.1,0.1-0.3,0.3-0.5,0.5c-0.2,0.2-0.5,0.4-0.8,0.6c-0.3,0.2-0.7,0.4-1.1,0.6
				s-0.9,0.2-1.4,0.2c-0.5,0-0.9-0.1-1.4-0.3c-0.5-0.2-0.9-0.5-1.3-0.8c-0.4-0.4-0.7-0.8-0.9-1.3s-0.3-1.1-0.3-1.8
				c0-1,0.3-1.8,0.8-2.4c0.5-0.6,1.2-1.1,2-1.4c0.8-0.3,1.7-0.5,2.6-0.6c0.9-0.1,1.8-0.1,2.5-0.1v-0.3c0-0.9-0.2-1.6-0.5-2
				c-0.3-0.5-1-0.7-1.8-0.7c-0.5,0-0.9,0-1.3,0.2c-0.4,0.1-0.8,0.2-1.2,0.3c-0.4,0.1-0.8,0.3-1.2,0.5l-0.8-2
				c0.5-0.3,1.1-0.5,1.7-0.7c0.5-0.2,1-0.3,1.7-0.5c0.6-0.2,1.2-0.2,1.9-0.2c1.6,0,2.8,0.4,3.6,1.3c0.8,0.9,1.2,2.1,1.2,3.6v9
				L69,27.5L69,27.5z M68.8,21.1c-0.5,0-1,0-1.5,0.1c-0.6,0.1-1.1,0.2-1.6,0.3c-0.5,0.2-0.9,0.4-1.2,0.7C64.1,22.5,64,23,64,23.5
				c0,0.6,0.2,1,0.6,1.3c0.4,0.3,0.8,0.5,1.2,0.5c0.4,0,0.8-0.1,1.1-0.2s0.7-0.3,1-0.5c0.3-0.2,0.6-0.5,0.9-0.7L68.8,21.1L68.8,21.1
				z"/>
			<path class="st0" d="M75.3,27.5V6.7h3.4v20.7L75.3,27.5L75.3,27.5z"/>
			<path class="st0" d="M85.9,9c0,0.5-0.2,1-0.5,1.4C85,10.8,84.6,11,84,11c-0.5,0-1-0.2-1.4-0.6S82.1,9.6,82.1,9
				c0-0.5,0.2-1,0.5-1.4C83,7.3,83.5,7.1,84,7.1c0.5,0,1,0.2,1.4,0.6C85.7,8,85.9,8.5,85.9,9z M82.3,27.5V13.9h3.4v13.6H82.3z"/>
			<path class="st0" d="M99.5,26.1c-0.5,0.3-1,0.6-1.6,0.8c-0.5,0.2-1,0.4-1.7,0.6c-0.6,0.2-1.3,0.3-2,0.3c-0.8,0-1.5-0.2-2.2-0.5
				c-0.7-0.3-1.3-0.8-1.8-1.3c-0.5-0.6-0.9-1.3-1.2-2.1c-0.3-0.8-0.5-1.7-0.5-2.7c0-1,0.2-2,0.5-2.9c0.3-0.9,0.8-1.7,1.4-2.4
				c0.6-0.7,1.3-1.3,2.2-1.7c0.9-0.4,1.8-0.6,2.8-0.6c0.5,0,0.9,0,1.4,0.1c0.4,0.1,0.8,0.2,1.2,0.3c0.4,0.1,0.8,0.2,1.2,0.4
				l-0.9,2.3l-0.6-0.1c-0.2,0-0.4-0.1-0.6-0.1c-0.2,0-0.5-0.1-0.8-0.1c-0.6,0-1.2,0.1-1.7,0.3c-0.5,0.2-1,0.6-1.4,1
				c-0.4,0.4-0.7,0.9-0.9,1.5C92.1,19.7,92,20.3,92,21c0,1.2,0.3,2.2,1,2.9c0.7,0.7,1.5,1.1,2.6,1.1c0.4,0,0.7,0,1.1-0.1
				s0.7-0.1,1-0.2c0.3-0.1,0.6-0.2,0.9-0.3L99.5,26.1z"/>
			<path class="st0" d="M105.3,9c0,0.5-0.2,1-0.5,1.4c-0.4,0.4-0.8,0.6-1.4,0.6c-0.5,0-1-0.2-1.4-0.6s-0.5-0.8-0.5-1.4
				c0-0.5,0.2-1,0.5-1.4c0.4-0.4,0.8-0.6,1.4-0.6c0.5,0,1,0.2,1.4,0.6C105.1,8,105.3,8.5,105.3,9z M101.7,27.5V13.9h3.4v13.6H101.7z
				"/>
			<path class="st0" d="M115.9,27.5l-0.3-1.6h-0.1c-0.1,0.1-0.3,0.3-0.5,0.5c-0.2,0.2-0.5,0.4-0.8,0.6c-0.3,0.2-0.7,0.4-1.1,0.6
				c-0.4,0.2-0.9,0.2-1.4,0.2c-0.5,0-0.9-0.1-1.4-0.3c-0.5-0.2-0.9-0.5-1.3-0.8c-0.4-0.4-0.7-0.8-0.9-1.3c-0.2-0.5-0.3-1.1-0.3-1.8
				c0-1,0.3-1.8,0.8-2.4c0.5-0.6,1.2-1.1,2-1.4c0.8-0.3,1.7-0.5,2.6-0.6c0.9-0.1,1.8-0.1,2.5-0.1v-0.3c0-0.9-0.2-1.6-0.5-2
				c-0.3-0.5-1-0.7-1.8-0.7c-0.5,0-0.9,0-1.3,0.2c-0.4,0.1-0.8,0.2-1.2,0.3c-0.4,0.1-0.8,0.3-1.2,0.5l-0.8-2
				c0.5-0.3,1.1-0.5,1.7-0.7c0.5-0.2,1-0.3,1.7-0.5c0.6-0.2,1.2-0.2,1.9-0.2c1.6,0,2.8,0.4,3.6,1.3c0.8,0.9,1.2,2.1,1.2,3.6v9
				L115.9,27.5L115.9,27.5z M115.6,21.1c-0.5,0-1,0-1.5,0.1c-0.6,0.1-1.1,0.2-1.6,0.3c-0.5,0.2-0.9,0.4-1.2,0.7
				c-0.3,0.3-0.5,0.7-0.5,1.2c0,0.6,0.2,1,0.6,1.3c0.4,0.3,0.8,0.5,1.2,0.5c0.4,0,0.8-0.1,1.1-0.2c0.4-0.2,0.7-0.3,1-0.5
				c0.3-0.2,0.6-0.5,0.9-0.7L115.6,21.1L115.6,21.1z"/>
		</g>
	</g>
</g>
</svg>
